<?xml version="1.0"?>
<svg xmlns="http://www.w3.org/2000/svg" viewBox="0 0 64 64" width="512" height="512"><g id="Expand"><path d="M45,41a13,13,0,0,1-26,0Z" style="fill:#57a4ff"/><path d="M45,41A13.008,13.008,0,0,1,32,54a13.168,13.168,0,0,1-2-.15A13.022,13.022,0,0,0,41,41Z" style="fill:#2488ff"/><path d="M41,27v1a1,1,0,0,1-1,1H38V26h2A1,1,0,0,1,41,27Z" style="fill:#ffdaaa"/><path d="M41,14v4a5.985,5.985,0,0,1-3,5.19V23l-3.1-.78A3.81,3.81,0,0,1,34,24c-1.33,1.43-3.7,1.56-4,1-.19-.36.58-.79,1-2a6.082,6.082,0,0,0,0-2H30l-4,2v1H25a2.006,2.006,0,0,1-2-2V20a6,6,0,0,1,6-6Z" style="fill:#ffde55"/><polygon points="39 41 37 49 27 49 25 41 39 41" style="fill:#ff7956"/><path d="M39,41l-7,4-7-4,4-3V34.19a5.961,5.961,0,0,0,6,0V38Z" style="fill:#ffdaaa"/><path d="M38,23v6a5.985,5.985,0,0,1-3,5.19,5.961,5.961,0,0,1-6,0A5.985,5.985,0,0,1,26,29V23l4-2h1a6.082,6.082,0,0,1,0,2c-.42,1.21-1.19,1.64-1,2,.3.56,2.67.43,4-1a3.81,3.81,0,0,0,.9-1.78Z" style="fill:#ffdaaa"/><path d="M38,23v6a5.985,5.985,0,0,1-3,5.19A5.857,5.857,0,0,1,32,35a6.531,6.531,0,0,1-1-.08,5.79,5.79,0,0,0,2-.73A5.985,5.985,0,0,0,36,29V23l-1.23-.31a4.773,4.773,0,0,0,.13-.47Z" style="fill:#ffc477"/><path d="M26,26v3H24a1,1,0,0,1-1-1V27a1,1,0,0,1,1-1Z" style="fill:#ffdaaa"/><path d="M45,40H39.333L36,37.5V34.736A7,7,0,0,0,38.92,30H40a2,2,0,0,0,2-2V27a2,2,0,0,0-2-2H39V23.722A7,7,0,0,0,42,18V14a1,1,0,0,0-1-1H29a7.008,7.008,0,0,0-7,7v2a3,3,0,0,0,3,3H24a2,2,0,0,0-2,2v1a2,2,0,0,0,2,2h1.08A7,7,0,0,0,28,34.736V37.5L24.667,40H19a1,1,0,0,0-1,1A14.007,14.007,0,0,0,31,54.949V59l-2.4-1.8-1.2,1.6,4,3,.005-.007a1.022,1.022,0,0,0,.148.1,1,1,0,0,0,1.047-.1l4-3-1.2-1.6L33,59V54.949A14.007,14.007,0,0,0,46,41,1,1,0,0,0,45,40ZM40,27v1H39V27ZM24,22V20a5.006,5.006,0,0,1,5-5H40v3a5,5,0,0,1-1.977,3.975l-2.878-.725a1,1,0,0,0-1.222.76,2.847,2.847,0,0,1-.655,1.309,3.33,3.33,0,0,1-1.746.927,5.193,5.193,0,0,0,.42-.911,6.321,6.321,0,0,0,.047-2.482A1,1,0,0,0,31,20H30a1,1,0,0,0-.447.105l-4,2A1,1,0,0,0,25,23,1,1,0,0,1,24,22Zm0,5h1v1H24Zm3,2V23.618l3.091-1.545a2.391,2.391,0,0,1-.035.6,3.834,3.834,0,0,1-.6,1.062,1.578,1.578,0,0,0-.342,1.738,1.67,1.67,0,0,0,1.368.808,5.324,5.324,0,0,0,4.253-1.606,4.737,4.737,0,0,0,.819-1.257L37,23.78V29a5,5,0,0,1-10,0Zm2.6,9.8A1,1,0,0,0,30,38v-2.3a6.927,6.927,0,0,0,4,0V38a1,1,0,0,0,.4.8l2.783,2.087L32,43.848l-5.183-2.961Zm7.862,4.231L36.219,48H27.781l-1.243-4.969L31.5,45.868a1,1,0,0,0,.992,0ZM32,53A12.017,12.017,0,0,1,20.041,42H24.22l1.81,7.243A1,1,0,0,0,27,50H37a1,1,0,0,0,.97-.757L39.78,42h4.179A12.017,12.017,0,0,1,32,53Z"/><path d="M31,5v6h2V5l2.4,1.8,1.2-1.6-4-3-.005.007a1.022,1.022,0,0,0-.148-.1,1,1,0,0,0-1.047.1l-4,3,1.2,1.6Z"/><path d="M16.585,11.776,16.3,9.8l-4.949.707v.009a.972.972,0,0,0-.176.032,1,1,0,0,0-.674.808L9.8,16.3l1.98.283.424-2.969,4.242,4.242,1.414-1.414L13.615,12.2Z"/><path d="M11,33V31H5l1.8-2.4L5.2,27.4l-3,4,.007.005a1.022,1.022,0,0,0-.1.148A1,1,0,0,0,2.2,32.6l3,4,1.6-1.2L5,33Z"/><path d="M16.443,46.142,12.2,50.384l-.425-2.969L9.8,47.7l.707,4.949h.009a1.069,1.069,0,0,0,.033.176,1,1,0,0,0,.807.674L16.3,54.2l.283-1.979-2.97-.425,4.242-4.243Z"/><path d="M51.8,50.384l-4.242-4.242-1.414,1.414L50.385,51.8l-2.97.425L47.7,54.2l4.949-.707v-.013a.949.949,0,0,0,.176-.028,1,1,0,0,0,.674-.808L54.2,47.7l-1.98-.283Z"/><path d="M61.8,31.4l-3-4-1.6,1.2L59,31H53v2h6l-1.8,2.4,1.6,1.2,3-4-.007-.005a1.022,1.022,0,0,0,.1-.148A1,1,0,0,0,61.8,31.4Z"/><path d="M47.557,17.858,51.8,13.616l.425,2.969L54.2,16.3,53.5,11.353h-.009a1.069,1.069,0,0,0-.033-.176,1,1,0,0,0-.807-.674L47.7,9.8l-.283,1.979,2.97.425-4.242,4.243Z"/></g></svg>
