<?xml version="1.0" encoding="iso-8859-1"?>
<!-- Generator: Adobe Illustrator 19.0.0, SVG Export Plug-In . SVG Version: 6.00 Build 0)  -->
<svg version="1.1" id="Capa_1" xmlns="http://www.w3.org/2000/svg" xmlns:xlink="http://www.w3.org/1999/xlink" x="0px" y="0px"
	 viewBox="0 0 512 512" style="enable-background:new 0 0 512 512;" xml:space="preserve">
<path style="fill:#00E890;" d="M497,151.333c-18.748,0-34-15.252-34-34v-15H49v15c0,18.748-15.252,34-34,34H0v209.333h15
	c18.748,0,34,15.252,34,34v15h414v-15c0-18.748,15.252-34,34-34h15V151.333H497z"/>
<path style="fill:#00C47A;" d="M497,151.333c-18.748,0-34-15.252-34-34v-15H256v307.333h207v-15c0-18.748,15.252-34,34-34h15
	V151.333H497z"/>
<path style="fill:#FFFFFF;" d="M141.39,213.264c0-32.117,20.72-50.506,48.175-50.506s48.175,18.39,48.175,50.506
	c0,32.376-20.72,50.506-48.175,50.506S141.39,245.641,141.39,213.264z M296.016,165.349h43.772L215.984,346.652h-43.772
	L296.016,165.349z M200.961,213.264c0-17.353-5.698-22.533-11.396-22.533s-11.396,5.18-11.396,22.533
	c0,17.354,5.698,22.534,11.396,22.534S200.961,230.618,200.961,213.264z M274.26,298.736c0-32.117,20.721-50.506,48.175-50.506
	c27.455,0,48.175,18.389,48.175,50.506c0,32.376-20.72,50.506-48.175,50.506S274.26,331.112,274.26,298.736z M333.831,298.736
	c0-17.353-5.698-22.533-11.396-22.533s-11.396,5.18-11.396,22.533s5.698,22.534,11.396,22.534S333.831,316.09,333.831,298.736z"/>
<rect y="241" style="fill:#0773A4;" width="45.33" height="30"/>
<rect x="466.67" y="241" style="fill:#054D6E;" width="45.33" height="30"/>
<g>
	<polygon style="fill:#FFF1AB;" points="256,288.051 339.788,165.349 296.016,165.349 256,223.949 	"/>
	<path style="fill:#FFF1AB;" d="M322.435,248.23c-27.455,0-48.175,18.389-48.175,50.506c0,32.376,20.721,50.506,48.175,50.506
		c27.455,0,48.175-18.13,48.175-50.506C370.61,266.619,349.89,248.23,322.435,248.23z M322.435,321.27
		c-5.698,0-11.396-5.18-11.396-22.534c0-17.353,5.698-22.533,11.396-22.533s11.396,5.18,11.396,22.533
		C333.831,316.09,328.133,321.27,322.435,321.27z"/>
</g>
<g>
</g>
<g>
</g>
<g>
</g>
<g>
</g>
<g>
</g>
<g>
</g>
<g>
</g>
<g>
</g>
<g>
</g>
<g>
</g>
<g>
</g>
<g>
</g>
<g>
</g>
<g>
</g>
<g>
</g>
</svg>
