<svg id="Capa_1" enable-background="new 0 0 512 512" height="512" viewBox="0 0 512 512" width="512" xmlns="http://www.w3.org/2000/svg"><g><path d="m512 256c0 141.385-114.615 256-256 256-41.6 0-80.883-9.923-115.61-27.53-4.541-2.302 4.858-10.1.478-12.66-38.839-22.701-71.161-55.339-93.478-94.426-2.088-3.657-17.95-2.006-19.86-5.773-17.607-34.728-27.53-74.011-27.53-115.611 0-141.385 114.615-256 256-256 47.926 0 92.776 13.17 131.128 36.088 4.547 2.717 1.995 12.829 6.354 15.814 31.325 21.456 57.638 49.694 76.823 82.599 2.691 4.616 12.249 2.065 14.654 6.859 17.302 34.488 27.041 73.426 27.041 114.64z" fill="#ff9f22"/><path d="m475.079 221.173c0 106.04-85.962 192.002-192.002 192.002s-192.002-85.962-192.002-192.002 85.962-192.002 192.002-192.002 192.002 85.962 192.002 192.002z" fill="#ffb52d"/><path d="m172.22 166.126h-25.455c-6.48.095-6.493-10.095 0-10h25.454c6.481-.095 6.494 10.096.001 10zm-5.48 23.404s-9.974 7.394-9.974 7.393c-5.271 3.788.802 11.971 5.954 8.034l9.974-7.393c5.272-3.788-.801-11.971-5.954-8.034zm16.704-60.277s-7.393-9.974-7.393-9.974c-3.788-5.271-11.971.802-8.034 5.955l7.393 9.974c3.788 5.271 11.971-.802 8.034-5.955z" fill="#fcf2b6"/><path d="m407.347 297.611c-23.278 44.623-71.266 54.531-119.859 56.088-19.724.632-38.998 6.046-56.012 16.044l-19.778 11.622-59.251 59.251-75.24-75.24 59.251-59.251 13.655-40.348c3.863-11.415 10.305-21.785 18.826-30.306l37.909-37.909c1.734-2.074 3.955-3.8 6.664-4.982 3.368-1.629 6.83-2.119 10.127-1.726h72.737c27.314 4.033 7.871 42.511-13.301 39.902h-48.075c-3.149 0-6.168 1.251-8.395 3.477l-.207.207c-4.636 4.636-4.636 12.153 0 16.79l2.244 2.244c2.179 2.179 5.113 3.422 8.193 3.475 51.388.874 133.974 5.907 162.109-13.104 9.391-4.986 21.045-1.248 25.784 8.271 8.502 13.14-12.48 34.563-17.381 45.495z" fill="#ffdecf"/><path d="m77.207 365.377 59.251-59.251 13.655-40.348c3.863-11.415 10.305-21.785 18.826-30.306l37.909-37.909c1.734-2.074 3.955-3.8 6.664-4.982 3.368-1.629 6.83-2.119 10.127-1.726h72.737c11.311 1.67 14.604 9.247 13.076 17.367h-66.41c-3.297-.393-6.759.096-10.127 1.726-2.709 1.182-4.93 2.908-6.664 4.982l-37.909 37.909c-8.521 8.521-14.963 18.891-18.826 30.306l-13.655 40.348-59.251 59.251z" fill="#ffcdbe"/><path d="m449.922 178.806c-7.624 6.386-20.575 25.271-32.111 23.766h-74.477c-7.346 0-13.301-5.955-13.3-13.301.622-36.28 48.686-25.598 74.488-26.269 3.165-.082 6.168-1.395 8.407-3.633 4.848-4.848 4.848-12.708 0-17.555l-1.862-1.862c-2.418-2.418-5.725-3.743-9.143-3.63-41.28 1.366-128.703-8.043-161.158 13.261-9.391 4.986-21.045 1.248-25.784-8.272-8.538-13.149 12.535-34.549 17.382-45.494 29.878-53.588 92.554-59.109 147.588-55.512l7.176-4.217c41.809 24.983 75.897 61.551 97.831 105.271 1.527 3.485-33.582 34.888-35.037 37.447z" fill="#a65d4e"/><path d="m224.582 150.314c-4.028-1.689-7.496-4.776-9.6-9.004-8.538-13.149 12.535-34.549 17.382-45.494 29.878-53.588 92.554-59.109 147.588-55.512l7.176-4.217c7.122 4.256 14.02 8.848 20.671 13.754l-4.752 2.793c-58.887-3.85-125.952 2.059-157.921 59.398-4.041 9.126-18.622 25.042-20.544 38.282z" fill="#915041"/><path d="m356.635 192.597c-.019 9.229-9.3 10.736-16.626 9.975-5.509.001-9.975-4.465-9.975-9.975.019-9.229 9.3-10.736 16.626-9.975 5.509 0 9.975 4.466 9.975 9.975z" fill="#e09380"/><path d="m286.077 200.83c.019-9.229 9.3-10.736 16.626-9.975 5.509-.001 9.975 4.465 9.975 9.975-.019 9.229-9.3 10.736-16.626 9.975-5.509 0-9.975-4.466-9.975-9.975z" fill="#ffeee5"/><path d="m76.341 385.635c-7.15-9.806-13.534-20.207-19.064-31.114l54.146-54.146c4.61-4.609 12.084-4.609 16.693 0 10.082 9.79 18.255 17.317 23.69 23.052.044.047-.193.375-.149.421 20.835 22.044 7.406 21.77-36.005 64.971-11.295 11.242-29.922 9.692-39.311-3.184z" fill="#def4f8"/><path d="m157.757 454.363c-32.937-16.7-61.257-41.189-82.536-71.044l59.891-59.892c4.61-4.61 12.084-4.61 16.693 0 75.662 83.693 89.494 46.411 5.952 130.936z" fill="#fff5f5"/><path d="m49.012 406.668c-8.057-11.049-15.25-22.769-21.482-35.058l61.01-61.01c5.194-5.194 13.616-5.194 18.81 0 55.306 53.705 47.646 38.265-14.043 99.657-12.728 12.666-33.716 10.92-44.295-3.589z" fill="#2b3894"/><path d="m140.39 484.47c-37.113-18.817-69.023-46.411-93-80.051l67.484-67.485c5.194-5.194 13.616-5.194 18.81 0 85.254 94.303 100.84 52.294 6.706 147.536z" fill="#3342ae"/></g></svg>