<svg id="Capa_1" enable-background="new 0 0 512 512" height="512" viewBox="0 0 512 512" width="512" xmlns="http://www.w3.org/2000/svg"><g><g><path d="m424.336 168.336c0 81.077-128.024 231.525-160.777 268.688-4.015 4.555-11.103 4.555-15.118 0-32.753-37.163-160.777-187.611-160.777-268.688 0-92.969 75.367-168.336 168.336-168.336s168.336 75.367 168.336 168.336z" fill="#b3e59f"/></g><g><path d="m348.763 27.857c17.599 26.599 27.857 58.48 27.857 92.762 0 84.854-140.228 245.69-164.709 273.122 15.561 19.193 28.742 34.445 36.531 43.283 4.015 4.555 11.103 4.555 15.118 0 32.753-37.163 160.777-187.611 160.777-268.688-.001-58.687-30.04-110.351-75.574-140.479z" fill="#95d6a4"/></g><g><circle cx="256" cy="165.314" fill="#f4fbff" r="128.358"/></g><g><path d="m384.358 165.314c0-15.472-2.739-30.304-7.755-44.039-.371 44.516-38.799 109.598-78.848 165.447 50.39-17.328 86.603-65.136 86.603-121.408z" fill="#e4f6ff"/></g><g><path d="m343.359 512h-174.718c-13.357 0-24.185-10.828-24.185-24.185 0-13.357 10.828-24.185 24.185-24.185h174.717c13.357 0 24.185 10.828 24.185 24.185 0 13.357-10.828 24.185-24.184 24.185z" fill="#365e7d"/></g><path d="m354.98 466.604c0 .01.001.02.001.029 0 13.357-10.828 24.185-24.185 24.185h-174.717c-4.213 0-8.172-1.079-11.621-2.973.016 13.343 10.837 24.155 24.183 24.155h174.717c13.357 0 24.185-10.828 24.185-24.185 0-9.144-5.076-17.101-12.563-21.211z" fill="#2b4d66"/><g><path d="m332.404 144.764-72.733-43.377c-2.261-1.349-5.08-1.349-7.341 0l-72.733 43.377v67.462c0 3.958 3.208 7.166 7.166 7.166h138.476c3.958 0 7.166-3.208 7.166-7.166v-67.462z" fill="#e4f6ff"/></g><g><path d="m345.693 160.431c-1.339 0-2.693-.35-3.926-1.085l-85.767-51.151-85.767 51.151c-3.644 2.171-8.355.981-10.527-2.661s-.981-8.354 2.661-10.527l86.212-51.416c4.579-2.729 10.264-2.729 14.842 0l86.211 51.416c3.642 2.172 4.834 6.885 2.661 10.527-1.436 2.41-3.985 3.746-6.6 3.746z" fill="#2b4d66"/></g><g><path d="m270.57 166.456h-29.14c-2.209 0-4 1.791-4 4v48.936h37.141v-48.936c-.001-2.209-1.792-4-4.001-4z" fill="#2b4d66"/></g><g fill="#bed8fb"><path d="m332.404 194.767h-24.649c-2.761 0-5-2.239-5-5v-18.311c0-2.761 2.239-5 5-5h24.649z"/><path d="m204.245 194.767h-24.649v-28.311h24.649c2.761 0 5 2.239 5 5v18.311c0 2.761-2.238 5-5 5z"/></g></g></svg>