<svg id="Capa_1" enable-background="new 0 0 512 512" height="512" viewBox="0 0 512 512" width="512" xmlns="http://www.w3.org/2000/svg"><g><g><path d="m20.718 261.876v31.95l8.407 16.731-8.407 16.73v70.655h180.463v-261.773h-47.71z" fill="#365e7d"/></g><g><path d="m20.718 319.379h180.463v78.563h-180.463z" fill="#2b4d66"/></g><g><path d="m492.563 397.942h-298.59v-304.937c0-8.284 6.716-15 15-15h268.59c8.284 0 15 6.716 15 15z" fill="#ffe07d"/></g><g><path d="m477.563 78.005h-32.779v220.778c0 11.375-9.221 20.596-20.596 20.596h-230.215v78.563h298.59v-304.937c0-8.284-6.716-15-15-15z" fill="#ffd064"/></g><g><path d="m501.702 367.158h-46.041c-1.756 0-3.465-.628-4.768-1.805-16.638-15.028-38.676-24.189-62.862-24.189s-46.223 9.161-62.862 24.189c-1.303 1.177-3.012 1.805-4.768 1.805h-135.793c-1.756 0-3.465-.628-4.768-1.805-16.638-15.028-38.676-24.189-62.862-24.189s-46.223 9.161-62.862 24.189c-1.304 1.177-3.012 1.805-4.768 1.805h-39.05c-5.687 0-10.298 4.61-10.298 10.298v47.25c0 5.687 4.611 10.298 10.298 10.298h491.404c5.687 0 10.298-4.611 10.298-10.298v-47.25c0-5.688-4.611-10.298-10.298-10.298z" fill="#b3e59f"/></g><g><path d="m501.702 367.158h-18.228v29.023c0 5.687-4.61 10.298-10.298 10.298h-473.176v18.228c0 5.687 4.611 10.298 10.298 10.298h491.404c5.687 0 10.298-4.611 10.298-10.298v-47.25c0-5.689-4.611-10.299-10.298-10.299z" fill="#95d6a4"/></g><g><circle cx="116.978" cy="435.004" fill="#f4fbff" r="60.822"/></g><path d="m149.623 383.697c6.015 9.434 9.514 20.627 9.514 32.644 0 33.591-27.231 60.822-60.822 60.822-12.017 0-23.211-3.5-32.644-9.514 10.798 16.935 29.734 28.177 51.308 28.177 33.591 0 60.822-27.231 60.822-60.822-.001-21.573-11.243-40.509-28.178-51.307z" fill="#e4f6ff"/><g><circle cx="116.978" cy="435.004" fill="#365e7d" r="21.722"/></g><g><circle cx="388.032" cy="435.004" fill="#f4fbff" r="60.822"/></g><path d="m420.676 383.696c6.015 9.434 9.514 20.627 9.514 32.645 0 33.591-27.231 60.822-60.822 60.822-12.018 0-23.211-3.5-32.645-9.514 10.798 16.935 29.734 28.177 51.308 28.177 33.591 0 60.822-27.231 60.822-60.822.001-21.573-11.241-40.509-28.177-51.308z" fill="#e4f6ff"/><g><circle cx="388.032" cy="435.004" fill="#365e7d" r="21.722"/></g><path d="m393.399 413.952c.436 1.717.67 3.515.67 5.367 0 11.997-9.725 21.722-21.722 21.722-1.853 0-3.65-.233-5.367-.67 2.389 9.401 10.908 16.355 21.052 16.355 11.997 0 21.722-9.725 21.722-21.722 0-10.144-6.954-18.663-16.355-21.052z" fill="#2b4d66"/><g><path d="m112.549 136.169c-10.423 0-20.336 4.512-27.181 12.372l-53.257 61.155c-7.347 8.437-11.394 19.246-11.394 30.433v21.746h127.605c2.844 0 5.149-2.305 5.149-5.149v-120.557z" fill="#cbe2ff"/></g><g><path d="m128.378 136.169v95.465c0 2.844-2.305 5.149-5.149 5.149h-102.379c-.08 1.111-.132 2.227-.132 3.347v21.746h127.605c2.844 0 5.149-2.305 5.149-5.149v-120.558z" fill="#bed8fb"/></g><g><path d="m122.023 302.193h-19.984c-4.266 0-7.723-3.458-7.723-7.723s3.457-7.723 7.723-7.723h19.984c4.266 0 7.723 3.458 7.723 7.723s-3.457 7.723-7.723 7.723z" fill="#2b4d66"/></g><path d="m20.718 327.287h31.789c9.24 0 16.731-7.491 16.731-16.731 0-9.24-7.491-16.731-16.731-16.731h-31.789z" fill="#ffe07d"/><path d="m60.908 296.104c-1.114 8.159-8.093 14.452-16.558 14.452h-23.632v16.731h31.789c9.24 0 16.731-7.491 16.731-16.731 0-6.173-3.354-11.552-8.33-14.452z" fill="#ffd064"/><g><path d="m457.328 130.196c0 54.918-86.717 156.823-108.903 181.996-2.719 3.085-7.521 3.085-10.24 0-22.185-25.173-108.902-127.078-108.902-181.996 0-62.973 51.05-114.023 114.023-114.023s114.022 51.05 114.022 114.023z" fill="#b3e59f"/></g><path d="m377.573 21.417c23.929 20.902 39.05 51.636 39.05 85.904 0 51.011-74.808 142.549-103.233 175.49 10.562 13.03 19.511 23.385 24.795 29.38 2.719 3.085 7.521 3.085 10.24 0 22.185-25.173 108.902-127.078 108.902-181.996.001-51.031-33.526-94.229-79.754-108.778z" fill="#95d6a4"/><g><circle cx="343.305" cy="123.466" fill="#f4fbff" r="47.738"/></g><path d="m368.256 82.765c4.461 7.261 7.038 15.804 7.038 24.951 0 26.365-21.373 47.738-47.738 47.738-9.147 0-17.69-2.577-24.951-7.037 8.397 13.669 23.482 22.787 40.701 22.787 26.365 0 47.738-21.373 47.738-47.738-.001-17.219-9.119-32.304-22.788-40.701z" fill="#e4f6ff"/><path d="m122.345 413.952c.436 1.717.67 3.515.67 5.367 0 11.997-9.725 21.722-21.722 21.722-1.853 0-3.65-.233-5.367-.67 2.389 9.401 10.908 16.355 21.053 16.355 11.997 0 21.722-9.725 21.722-21.722-.001-10.144-6.955-18.663-16.356-21.052z" fill="#2b4d66"/></g></svg>